<svg width="519" height="91" viewBox="0 0 519 91" fill="none" xmlns="http://www.w3.org/2000/svg">
<mask id="path-1-outside-1_24_183" maskUnits="userSpaceOnUse" x="-3" y="-3" width="528" height="97" fill="black">
<rect fill="white" x="-3" y="-3" width="528" height="97"/>
<path d="M0.36 40.83C0.36 33.55 1.865 27.075 4.875 21.405C7.955 15.665 12.295 11.22 17.895 8.07C23.495 4.85 29.935 3.24 37.215 3.24C46.455 3.24 54.225 5.725 60.525 10.695C66.825 15.595 70.885 22.28 72.705 30.75H50.55C49.22 27.95 47.365 25.815 44.985 24.345C42.675 22.875 39.98 22.14 36.9 22.14C32.14 22.14 28.325 23.855 25.455 27.285C22.655 30.645 21.255 35.16 21.255 40.83C21.255 46.57 22.655 51.155 25.455 54.585C28.325 57.945 32.14 59.625 36.9 59.625C39.98 59.625 42.675 58.89 44.985 57.42C47.365 55.95 49.22 53.815 50.55 51.015H72.705C70.885 59.485 66.825 66.205 60.525 71.175C54.225 76.075 46.455 78.525 37.215 78.525C29.935 78.525 23.495 76.95 17.895 73.8C12.295 70.58 7.955 66.135 4.875 60.465C1.865 54.725 0.36 48.18 0.36 40.83ZM79.0903 48.495C79.0903 42.405 80.1753 37.085 82.3453 32.535C84.5853 27.985 87.5953 24.485 91.3753 22.035C95.2253 19.585 99.4953 18.36 104.185 18.36C108.245 18.36 111.745 19.165 114.685 20.775C117.625 22.385 119.9 24.555 121.51 27.285V19.095H142.09V78H121.51V69.81C119.9 72.54 117.59 74.71 114.58 76.32C111.64 77.93 108.175 78.735 104.185 78.735C99.4953 78.735 95.2253 77.51 91.3753 75.06C87.5953 72.61 84.5853 69.11 82.3453 64.56C80.1753 59.94 79.0903 54.585 79.0903 48.495ZM121.51 48.495C121.51 44.715 120.46 41.74 118.36 39.57C116.33 37.4 113.81 36.315 110.8 36.315C107.72 36.315 105.165 37.4 103.135 39.57C101.105 41.67 100.09 44.645 100.09 48.495C100.09 52.275 101.105 55.285 103.135 57.525C105.165 59.695 107.72 60.78 110.8 60.78C113.81 60.78 116.33 59.695 118.36 57.525C120.46 55.355 121.51 52.345 121.51 48.495ZM174.398 29.49C176.708 26.13 179.508 23.47 182.798 21.51C186.088 19.55 189.623 18.57 193.403 18.57V40.515H187.628C183.148 40.515 179.823 41.39 177.653 43.14C175.483 44.89 174.398 47.935 174.398 52.275V78H153.818V19.095H174.398V29.49ZM221.36 27.285C222.97 24.485 225.245 22.315 228.185 20.775C231.125 19.165 234.59 18.36 238.58 18.36C243.27 18.36 247.505 19.585 251.285 22.035C255.135 24.485 258.145 27.985 260.315 32.535C262.555 37.085 263.675 42.405 263.675 48.495C263.675 54.585 262.555 59.94 260.315 64.56C258.145 69.11 255.135 72.61 251.285 75.06C247.505 77.51 243.27 78.735 238.58 78.735C234.59 78.735 231.125 77.965 228.185 76.425C225.245 74.815 222.97 72.61 221.36 69.81V78H200.78V0.299999H221.36V27.285ZM242.78 48.495C242.78 44.645 241.73 41.67 239.63 39.57C237.6 37.4 235.08 36.315 232.07 36.315C229.06 36.315 226.505 37.4 224.405 39.57C222.375 41.74 221.36 44.715 221.36 48.495C221.36 52.345 222.375 55.355 224.405 57.525C226.505 59.695 229.06 60.78 232.07 60.78C235.08 60.78 237.6 59.695 239.63 57.525C241.73 55.285 242.78 52.275 242.78 48.495ZM299.553 78.735C293.673 78.735 288.388 77.51 283.698 75.06C279.078 72.61 275.438 69.11 272.778 64.56C270.118 60.01 268.788 54.655 268.788 48.495C268.788 42.405 270.118 37.085 272.778 32.535C275.508 27.985 279.183 24.485 283.803 22.035C288.493 19.585 293.778 18.36 299.658 18.36C305.538 18.36 310.788 19.585 315.408 22.035C320.098 24.485 323.773 27.985 326.433 32.535C329.163 37.085 330.528 42.405 330.528 48.495C330.528 54.585 329.163 59.94 326.433 64.56C323.773 69.11 320.098 72.61 315.408 75.06C310.718 77.51 305.433 78.735 299.553 78.735ZM299.553 60.885C302.423 60.885 304.803 59.835 306.693 57.735C308.653 55.565 309.633 52.485 309.633 48.495C309.633 44.505 308.653 41.46 306.693 39.36C304.803 37.26 302.458 36.21 299.658 36.21C296.858 36.21 294.513 37.26 292.623 39.36C290.733 41.46 289.788 44.505 289.788 48.495C289.788 52.555 290.698 55.635 292.518 57.735C294.338 59.835 296.683 60.885 299.553 60.885ZM377.436 18.57C384.226 18.57 389.616 20.845 393.606 25.395C397.596 29.875 399.591 35.965 399.591 43.665V78H379.011V46.395C379.011 43.035 378.136 40.41 376.386 38.52C374.636 36.56 372.291 35.58 369.351 35.58C366.271 35.58 363.856 36.56 362.106 38.52C360.356 40.41 359.481 43.035 359.481 46.395V78H338.901V19.095H359.481V27.495C361.301 24.835 363.751 22.7 366.831 21.09C369.911 19.41 373.446 18.57 377.436 18.57ZM431.463 3.975V78H410.883V3.975H431.463ZM493.898 90.39L485.708 78.105C483.398 78.525 481.053 78.735 478.673 78.735C471.743 78.735 465.373 77.125 459.563 73.905C453.753 70.615 449.133 66.1 445.703 60.36C442.343 54.55 440.663 48.005 440.663 40.725C440.663 33.445 442.343 26.935 445.703 21.195C449.133 15.385 453.753 10.87 459.563 7.65C465.373 4.43 471.743 2.82 478.673 2.82C485.673 2.82 492.043 4.43 497.783 7.65C503.593 10.87 508.178 15.385 511.538 21.195C514.898 26.935 516.578 33.445 516.578 40.725C516.578 46.815 515.353 52.45 512.903 57.63C510.453 62.74 507.093 67.01 502.823 70.44L518.468 90.39H493.898ZM461.663 40.725C461.663 46.535 463.168 51.155 466.178 54.585C469.188 57.945 473.353 59.625 478.673 59.625C483.923 59.625 488.053 57.91 491.063 54.48C494.143 51.05 495.683 46.465 495.683 40.725C495.683 34.845 494.143 30.225 491.063 26.865C488.053 23.435 483.923 21.72 478.673 21.72C473.353 21.72 469.188 23.435 466.178 26.865C463.168 30.225 461.663 34.845 461.663 40.725Z"/>
</mask>
<path d="M4.875 21.405L2.23149 19.9865L2.22523 19.9983L4.875 21.405ZM17.895 8.07L19.3658 10.6847L19.3781 10.6778L19.3904 10.6707L17.895 8.07ZM60.525 10.695L58.6669 13.0503L58.675 13.0567L58.6832 13.0631L60.525 10.695ZM72.705 30.75V33.75H76.4181L75.6381 30.1198L72.705 30.75ZM50.55 30.75L47.8402 32.0372L48.6538 33.75H50.55V30.75ZM44.985 24.345L43.3744 26.876L43.3914 26.8868L43.4085 26.8974L44.985 24.345ZM25.455 27.285L23.1542 25.3598L23.1503 25.3644L25.455 27.285ZM25.455 54.585L23.131 56.4821L23.1522 56.508L23.1739 56.5335L25.455 54.585ZM44.985 57.42L43.4085 54.8676L43.3914 54.8782L43.3744 54.889L44.985 57.42ZM50.55 51.015V48.015H48.6538L47.8402 49.7278L50.55 51.015ZM72.705 51.015L75.6381 51.6452L76.4181 48.015H72.705V51.015ZM60.525 71.175L62.3668 73.5431L62.375 73.5367L62.3831 73.5303L60.525 71.175ZM17.895 73.8L16.3996 76.4007L16.4119 76.4078L16.4242 76.4147L17.895 73.8ZM4.875 60.465L2.21814 61.8582L2.22834 61.8777L2.23883 61.897L4.875 60.465ZM3.36 40.83C3.36 33.974 4.77402 27.9933 7.52477 22.8117L2.22523 19.9983C-1.04402 26.1567 -2.64 33.126 -2.64 40.83H3.36ZM7.51848 22.8234C10.3331 17.5781 14.2696 13.5513 19.3658 10.6847L16.4242 5.45527C10.3204 8.88865 5.57694 13.7519 2.23152 19.9865L7.51848 22.8234ZM19.3904 10.6707C24.48 7.74423 30.3919 6.24 37.215 6.24V0.239998C29.4781 0.239998 22.51 1.95576 16.3996 5.46928L19.3904 10.6707ZM37.215 6.24C45.8878 6.24 52.9746 8.55968 58.6669 13.0503L62.3831 8.33968C55.4754 2.89031 47.0222 0.239998 37.215 0.239998V6.24ZM58.6832 13.0631C64.3774 17.4919 68.0865 23.5364 69.7719 31.3802L75.6381 30.1198C73.6835 21.0236 69.2726 13.6981 62.3668 8.32694L58.6832 13.0631ZM72.705 27.75H50.55V33.75H72.705V27.75ZM53.2598 29.4628C51.7096 26.1992 49.4856 23.5987 46.5615 21.7926L43.4085 26.8974C45.2444 28.0313 46.7304 29.7008 47.8402 32.0372L53.2598 29.4628ZM46.5956 21.814C43.7459 20.0005 40.4772 19.14 36.9 19.14V25.14C39.4828 25.14 41.6041 25.7494 43.3744 26.876L46.5956 21.814ZM36.9 19.14C31.317 19.14 26.6348 21.2001 23.1542 25.3598L27.7558 29.2102C30.0152 26.5099 32.963 25.14 36.9 25.14V19.14ZM23.1503 25.3644C19.7821 29.4063 18.255 34.6696 18.255 40.83H24.255C24.255 35.6504 25.5279 31.8837 27.7597 29.2056L23.1503 25.3644ZM18.255 40.83C18.255 47.0537 19.7784 52.3752 23.131 56.4821L27.779 52.6879C25.5316 49.9348 24.255 46.0863 24.255 40.83H18.255ZM23.1739 56.5335C26.6619 60.617 31.3393 62.625 36.9 62.625V56.625C32.9407 56.625 29.9881 55.273 27.7361 52.6365L23.1739 56.5335ZM36.9 62.625C40.4772 62.625 43.7459 61.7645 46.5956 59.951L43.3744 54.889C41.6041 56.0155 39.4828 56.625 36.9 56.625V62.625ZM46.5615 59.9724C49.4856 58.1663 51.7096 55.5658 53.2598 52.3022L47.8402 49.7278C46.7304 52.0642 45.2444 53.7337 43.4085 54.8676L46.5615 59.9724ZM50.55 54.015H72.705V48.015H50.55V54.015ZM69.7719 50.3848C68.0861 58.2306 64.3736 64.3177 58.6669 68.8197L62.3831 73.5303C69.2764 68.0923 73.6839 60.7394 75.6381 51.6452L69.7719 50.3848ZM58.6832 68.8069C52.9904 73.2346 45.8978 75.525 37.215 75.525V81.525C47.0122 81.525 55.4596 78.9153 62.3668 73.5431L58.6832 68.8069ZM37.215 75.525C30.3806 75.525 24.4597 74.0506 19.3658 71.1853L16.4242 76.4147C22.5303 79.8494 29.4894 81.525 37.215 81.525V75.525ZM19.3904 71.1993C14.2709 68.2555 10.326 64.2149 7.51117 59.033L2.23883 61.897C5.584 68.0551 10.3191 72.9045 16.3996 76.4007L19.3904 71.1993ZM7.53186 59.0718C4.77591 53.8162 3.36 47.7604 3.36 40.83H-2.64C-2.64 48.5996 -1.04591 55.6338 2.21814 61.8582L7.53186 59.0718ZM82.3453 32.535L79.6538 31.2099L79.6455 31.2267L79.6375 31.2436L82.3453 32.535ZM91.3753 22.035L89.7647 19.504L89.7541 19.5107L89.7436 19.5175L91.3753 22.035ZM114.685 20.775L113.244 23.4063L114.685 20.775ZM121.51 27.285L118.926 28.809L124.51 38.2776V27.285H121.51ZM121.51 19.095V16.095H118.51V19.095H121.51ZM142.09 19.095H145.09V16.095H142.09V19.095ZM142.09 78V81H145.09V78H142.09ZM121.51 78H118.51V81H121.51V78ZM121.51 69.81H124.51V58.8174L118.926 68.286L121.51 69.81ZM114.58 76.32L113.165 73.6746L113.152 73.6816L113.139 73.6887L114.58 76.32ZM91.3753 75.06L89.7436 77.5775L89.7541 77.5843L89.7647 77.591L91.3753 75.06ZM82.3453 64.56L79.6299 65.8354L79.6416 65.8603L79.6538 65.885L82.3453 64.56ZM118.36 39.57L116.17 41.6195L116.187 41.638L116.205 41.6563L118.36 39.57ZM103.135 39.57L105.292 41.6551L105.309 41.6374L105.326 41.6195L103.135 39.57ZM103.135 57.525L100.912 59.5396L100.928 59.5571L100.944 59.5745L103.135 57.525ZM118.36 57.525L116.205 55.4387L116.187 55.457L116.17 55.4755L118.36 57.525ZM82.0903 48.495C82.0903 42.7603 83.1114 37.8979 85.0531 33.8264L79.6375 31.2436C77.2393 36.2721 76.0903 42.0497 76.0903 48.495H82.0903ZM85.0368 33.86C87.0685 29.7333 89.7366 26.6722 93.007 24.5525L89.7436 19.5175C85.454 22.2978 82.1022 26.2367 79.6538 31.2099L85.0368 33.86ZM92.9859 24.566C96.3407 22.4311 100.049 21.36 104.185 21.36V15.36C98.9415 15.36 94.1099 16.7388 89.7647 19.504L92.9859 24.566ZM104.185 21.36C107.847 21.36 110.83 22.0843 113.244 23.4063L116.126 18.1437C112.66 16.2457 108.643 15.36 104.185 15.36V21.36ZM113.244 23.4063C115.739 24.7724 117.607 26.5714 118.926 28.809L124.094 25.761C122.194 22.5386 119.512 19.9976 116.126 18.1437L113.244 23.4063ZM124.51 27.285V19.095H118.51V27.285H124.51ZM121.51 22.095H142.09V16.095H121.51V22.095ZM139.09 19.095V78H145.09V19.095H139.09ZM142.09 75H121.51V81H142.09V75ZM124.51 78V69.81H118.51V78H124.51ZM118.926 68.286C117.617 70.5056 115.729 72.3034 113.165 73.6746L115.995 78.9654C119.452 77.1166 122.183 74.5744 124.094 71.334L118.926 68.286ZM113.139 73.6887C110.718 75.0146 107.767 75.735 104.185 75.735V81.735C108.583 81.735 112.562 80.8454 116.021 78.9513L113.139 73.6887ZM104.185 75.735C100.049 75.735 96.3407 74.6639 92.9859 72.529L89.7647 77.591C94.1099 80.3561 98.9415 81.735 104.185 81.735V75.735ZM93.007 72.5425C89.7366 70.4228 87.0685 67.3617 85.0368 63.2349L79.6538 65.885C82.1022 70.8583 85.454 74.7972 89.7436 77.5775L93.007 72.5425ZM85.0607 63.2846C83.1109 59.1333 82.0903 54.2282 82.0903 48.495H76.0903C76.0903 54.9418 77.2398 60.7467 79.6299 65.8354L85.0607 63.2846ZM124.51 48.495C124.51 44.1423 123.286 40.3456 120.516 37.4837L116.205 41.6563C117.635 43.1344 118.51 45.2877 118.51 48.495H124.51ZM120.551 37.5205C117.946 34.7353 114.628 33.315 110.8 33.315V39.315C112.992 39.315 114.715 40.0647 116.17 41.6195L120.551 37.5205ZM110.8 33.315C106.924 33.315 103.565 34.7196 100.945 37.5205L105.326 41.6195C106.766 40.0804 108.516 39.315 110.8 39.315V33.315ZM100.978 37.4849C98.2528 40.3044 97.0903 44.1224 97.0903 48.495H103.09C103.09 45.1676 103.958 43.0356 105.292 41.6551L100.978 37.4849ZM97.0903 48.495C97.0903 52.8256 98.2657 56.6191 100.912 59.5396L105.358 55.5104C103.945 53.9509 103.09 51.7244 103.09 48.495H97.0903ZM100.944 59.5745C103.565 62.3754 106.924 63.78 110.8 63.78V57.78C108.516 57.78 106.766 57.0146 105.326 55.4755L100.944 59.5745ZM110.8 63.78C114.628 63.78 117.946 62.3597 120.551 59.5745L116.17 55.4755C114.715 57.0303 112.992 57.78 110.8 57.78V63.78ZM120.516 59.6113C123.295 56.7394 124.51 52.9001 124.51 48.495H118.51C118.51 51.7899 117.625 53.9706 116.205 55.4387L120.516 59.6113ZM174.398 29.49H171.398V39.149L176.87 31.1896L174.398 29.49ZM193.402 18.57H196.402V15.57H193.402V18.57ZM193.402 40.515V43.515H196.402V40.515H193.402ZM177.652 43.14L179.536 45.4752L177.652 43.14ZM174.398 78V81H177.398V78H174.398ZM153.818 78H150.818V81H153.818V78ZM153.818 19.095V16.095H150.818V19.095H153.818ZM174.398 19.095H177.398V16.095H174.398V19.095ZM176.87 31.1896C178.951 28.1628 181.439 25.8116 184.333 24.0873L181.262 18.9327C177.576 21.1284 174.464 24.0972 171.925 27.7904L176.87 31.1896ZM184.333 24.0873C187.165 22.4001 190.17 21.57 193.402 21.57V15.57C189.075 15.57 185.01 16.6999 181.262 18.9327L184.333 24.0873ZM190.402 18.57V40.515H196.402V18.57H190.402ZM193.402 37.515H187.628V43.515H193.402V37.515ZM187.628 37.515C182.85 37.515 178.712 38.4318 175.769 40.8048L179.536 45.4752C180.933 44.3482 183.445 43.515 187.628 43.515V37.515ZM175.769 40.8048C172.574 43.3813 171.398 47.5369 171.398 52.275H177.398C177.398 48.3331 178.391 46.3987 179.536 45.4752L175.769 40.8048ZM171.398 52.275V78H177.398V52.275H171.398ZM174.398 75H153.818V81H174.398V75ZM156.818 78V19.095H150.818V78H156.818ZM153.818 22.095H174.398V16.095H153.818V22.095ZM171.398 19.095V29.49H177.398V19.095H171.398ZM221.36 27.285H218.36V38.5208L223.961 28.7804L221.36 27.285ZM228.185 20.775L229.577 23.4325L229.602 23.4196L229.626 23.4063L228.185 20.775ZM251.285 22.035L249.654 24.5525L249.664 24.5593L249.675 24.566L251.285 22.035ZM260.315 32.535L257.608 33.8264L257.616 33.8433L257.624 33.86L260.315 32.535ZM260.315 64.56L257.616 63.2512L257.612 63.2599L257.608 63.2686L260.315 64.56ZM251.285 75.06L249.675 72.529L249.664 72.5357L249.654 72.5425L251.285 75.06ZM228.185 76.425L226.744 79.0563L226.769 79.0696L226.793 79.0825L228.185 76.425ZM221.36 69.81L223.961 68.3146L218.36 58.5742V69.81H221.36ZM221.36 78V81H224.36V78H221.36ZM200.78 78H197.78V81H200.78V78ZM200.78 0.299999V-2.7H197.78V0.299999H200.78ZM221.36 0.299999H224.36V-2.7H221.36V0.299999ZM239.63 39.57L237.44 41.6195L237.474 41.656L237.509 41.6913L239.63 39.57ZM224.405 39.57L222.25 37.4837L222.232 37.502L222.215 37.5205L224.405 39.57ZM224.405 57.525L222.215 59.5745L222.232 59.593L222.25 59.6113L224.405 57.525ZM239.63 57.525L237.442 55.4732L237.44 55.4755L239.63 57.525ZM223.961 28.7804C225.279 26.489 227.128 24.7156 229.577 23.4325L226.793 18.1175C223.363 19.9144 220.662 22.481 218.76 25.7896L223.961 28.7804ZM229.626 23.4063C232.048 22.0804 234.998 21.36 238.58 21.36V15.36C234.183 15.36 230.203 16.2496 226.744 18.1437L229.626 23.4063ZM238.58 21.36C242.716 21.36 246.38 22.4308 249.654 24.5525L252.917 19.5175C248.63 16.7392 243.824 15.36 238.58 15.36V21.36ZM249.675 24.566C253.001 26.6828 255.654 29.7294 257.608 33.8264L263.023 31.2436C260.637 26.2406 257.27 22.2872 252.896 19.504L249.675 24.566ZM257.624 33.86C259.624 37.9231 260.675 42.7733 260.675 48.495H266.675C266.675 42.0367 265.487 36.2469 263.007 31.2099L257.624 33.86ZM260.675 48.495C260.675 54.2153 259.625 59.1083 257.616 63.2512L263.015 65.8688C265.486 60.7718 266.675 54.9547 266.675 48.495H260.675ZM257.608 63.2686C255.654 67.3656 253.001 70.4122 249.675 72.529L252.896 77.591C257.27 74.8078 260.637 70.8544 263.023 65.8514L257.608 63.2686ZM249.654 72.5425C246.38 74.6642 242.716 75.735 238.58 75.735V81.735C243.824 81.735 248.63 80.3558 252.917 77.5775L249.654 72.5425ZM238.58 75.735C234.978 75.735 232.009 75.0413 229.577 73.7675L226.793 79.0825C230.242 80.8887 234.203 81.735 238.58 81.735V75.735ZM229.626 73.7937C227.151 72.4381 225.286 70.618 223.961 68.3146L218.76 71.3054C220.655 74.602 223.34 77.1919 226.744 79.0563L229.626 73.7937ZM218.36 69.81V78H224.36V69.81H218.36ZM221.36 75H200.78V81H221.36V75ZM203.78 78V0.299999H197.78V78H203.78ZM200.78 3.3H221.36V-2.7H200.78V3.3ZM218.36 0.299999V27.285H224.36V0.299999H218.36ZM245.78 48.495C245.78 44.0954 244.567 40.2642 241.752 37.4487L237.509 41.6913C238.894 43.0758 239.78 45.1946 239.78 48.495H245.78ZM241.821 37.5205C239.216 34.7353 235.899 33.315 232.07 33.315V39.315C234.262 39.315 235.985 40.0647 237.44 41.6195L241.821 37.5205ZM232.07 33.315C228.245 33.315 224.913 34.7319 222.25 37.4837L226.561 41.6563C228.098 40.0681 229.876 39.315 232.07 39.315V33.315ZM222.215 37.5205C219.534 40.3858 218.36 44.1692 218.36 48.495H224.36C224.36 45.2608 225.217 43.0942 226.596 41.6195L222.215 37.5205ZM218.36 48.495C218.36 52.8736 219.525 56.6995 222.215 59.5745L226.596 55.4755C225.226 54.0105 224.36 51.8164 224.36 48.495H218.36ZM222.25 59.6113C224.913 62.3631 228.245 63.78 232.07 63.78V57.78C229.876 57.78 228.098 57.0269 226.561 55.4387L222.25 59.6113ZM232.07 63.78C235.899 63.78 239.216 62.3597 241.821 59.5745L237.44 55.4755C235.985 57.0303 234.262 57.78 232.07 57.78V63.78ZM241.819 59.5768C244.554 56.659 245.78 52.852 245.78 48.495H239.78C239.78 51.698 238.906 53.911 237.442 55.4732L241.819 59.5768ZM283.698 75.06L282.292 77.7104L282.3 77.7147L282.309 77.719L283.698 75.06ZM272.778 64.56L275.367 63.0459L272.778 64.56ZM272.778 32.535L270.205 30.9915L270.196 31.0062L270.188 31.0209L272.778 32.535ZM283.803 22.035L282.414 19.3759L282.405 19.3803L282.397 19.3846L283.803 22.035ZM315.408 22.035L314.002 24.6854L314.01 24.6897L314.019 24.694L315.408 22.035ZM326.433 32.535L323.843 34.0491L323.851 34.0638L323.86 34.0785L326.433 32.535ZM326.433 64.56L323.85 63.0338L323.843 63.0459L326.433 64.56ZM315.408 75.06L314.019 72.401L315.408 75.06ZM306.693 57.735L304.466 55.7241L304.463 55.7281L306.693 57.735ZM306.693 39.36L304.463 41.3669L304.481 41.3871L304.499 41.407L306.693 39.36ZM292.518 57.735L290.251 59.6998L292.518 57.735ZM299.553 75.735C294.102 75.735 289.302 74.603 285.087 72.401L282.309 77.719C287.473 80.417 293.243 81.735 299.553 81.735V75.735ZM285.103 72.4096C280.98 70.2231 277.748 67.1184 275.367 63.0459L270.188 66.0741C273.127 71.1016 277.175 74.9969 282.292 77.7104L285.103 72.4096ZM275.367 63.0459C273.018 59.0278 271.788 54.2136 271.788 48.495H265.788C265.788 55.0964 267.217 60.9922 270.188 66.0741L275.367 63.0459ZM271.788 48.495C271.788 42.8533 273.015 38.0723 275.367 34.0491L270.188 31.0209C267.22 36.0977 265.788 41.9567 265.788 48.495H271.788ZM275.35 34.0785C277.803 29.9896 281.078 26.8756 285.208 24.6854L282.397 19.3846C277.287 22.0944 273.212 25.9804 270.205 30.9915L275.35 34.0785ZM285.192 24.694C289.407 22.492 294.207 21.36 299.658 21.36V15.36C293.349 15.36 287.578 16.678 282.414 19.3759L285.192 24.694ZM299.658 21.36C305.109 21.36 309.866 22.4923 314.002 24.6854L316.813 19.3846C311.709 16.6777 305.966 15.36 299.658 15.36V21.36ZM314.019 24.694C318.211 26.884 321.469 29.9881 323.843 34.0491L329.022 31.0209C326.077 25.9819 321.984 22.086 316.797 19.3759L314.019 24.694ZM323.86 34.0785C326.271 38.0968 327.528 42.867 327.528 48.495H333.528C333.528 41.943 332.054 36.0732 329.005 30.9915L323.86 34.0785ZM327.528 48.495C327.528 54.122 326.271 58.9357 323.85 63.0338L329.015 66.0862C332.054 60.9443 333.528 55.048 333.528 48.495H327.528ZM323.843 63.0459C321.469 67.1069 318.211 70.211 314.019 72.401L316.797 77.719C321.984 75.009 326.077 71.1131 329.022 66.0741L323.843 63.0459ZM314.019 72.401C309.803 74.603 305.004 75.735 299.553 75.735V81.735C305.862 81.735 311.632 80.417 316.797 77.719L314.019 72.401ZM299.553 63.885C303.258 63.885 306.453 62.4854 308.922 59.7419L304.463 55.7281C303.152 57.1846 301.587 57.885 299.553 57.885V63.885ZM308.919 59.7459C311.534 56.8507 312.633 52.9547 312.633 48.495H306.633C306.633 52.0153 305.771 54.2793 304.466 55.7241L308.919 59.7459ZM312.633 48.495C312.633 44.0429 311.537 40.1535 308.886 37.313L304.499 41.407C305.768 42.7665 306.633 44.9671 306.633 48.495H312.633ZM308.922 37.3531C306.469 34.6275 303.317 33.21 299.658 33.21V39.21C301.598 39.21 303.136 39.8925 304.463 41.3669L308.922 37.3531ZM299.658 33.21C295.998 33.21 292.846 34.6275 290.393 37.3531L294.852 41.3669C296.179 39.8925 297.717 39.21 299.658 39.21V33.21ZM290.393 37.3531C287.835 40.1946 286.788 44.0682 286.788 48.495H292.788C292.788 44.9418 293.63 42.7254 294.852 41.3669L290.393 37.3531ZM286.788 48.495C286.788 52.9513 287.781 56.8505 290.251 59.6998L294.785 55.7702C293.614 54.4195 292.788 52.1587 292.788 48.495H286.788ZM290.251 59.6998C292.661 62.4815 295.845 63.885 299.553 63.885V57.885C297.52 57.885 296.014 57.1885 294.785 55.7702L290.251 59.6998ZM393.605 25.395L391.35 27.373L391.358 27.3816L391.365 27.3903L393.605 25.395ZM399.591 78V81H402.591V78H399.591ZM379.01 78H376.01V81H379.01V78ZM376.385 38.52L374.148 40.518L374.166 40.5383L374.184 40.5582L376.385 38.52ZM362.105 38.52L364.307 40.5582L364.325 40.5383L364.343 40.518L362.105 38.52ZM359.48 78V81H362.48V78H359.48ZM338.901 78H335.901V81H338.901V78ZM338.901 19.095V16.095H335.901V19.095H338.901ZM359.48 19.095H362.48V16.095H359.48V19.095ZM359.48 27.495H356.48V37.1923L361.956 29.189L359.48 27.495ZM366.831 21.09L368.22 23.7487L368.244 23.7364L368.267 23.7237L366.831 21.09ZM377.436 21.57C383.479 21.57 388.003 23.556 391.35 27.373L395.861 23.417C391.228 18.1339 384.972 15.57 377.436 15.57V21.57ZM391.365 27.3903C394.74 31.1793 396.591 36.4861 396.591 43.665H402.591C402.591 35.4439 400.451 28.5707 395.846 23.3997L391.365 27.3903ZM396.591 43.665V78H402.591V43.665H396.591ZM399.591 75H379.01V81H399.591V75ZM382.01 78V46.395H376.01V78H382.01ZM382.01 46.395C382.01 42.516 380.991 39.0786 378.587 36.4818L374.184 40.5582C375.28 41.7414 376.01 43.554 376.01 46.395H382.01ZM378.623 36.5219C376.233 33.8447 373.032 32.58 369.35 32.58V38.58C371.549 38.58 373.038 39.2753 374.148 40.518L378.623 36.5219ZM369.35 32.58C365.578 32.58 362.286 33.8131 359.868 36.5219L364.343 40.518C365.425 39.3069 366.964 38.58 369.35 38.58V32.58ZM359.904 36.4818C357.5 39.0786 356.48 42.516 356.48 46.395H362.48C362.48 43.554 363.211 41.7414 364.307 40.5582L359.904 36.4818ZM356.48 46.395V78H362.48V46.395H356.48ZM359.48 75H338.901V81H359.48V75ZM341.901 78V19.095H335.901V78H341.901ZM338.901 22.095H359.48V16.095H338.901V22.095ZM356.48 19.095V27.495H362.48V19.095H356.48ZM361.956 29.189C363.477 26.9661 365.541 25.1493 368.22 23.7487L365.441 18.4313C361.96 20.2507 359.124 22.7039 357.005 25.8009L361.956 29.189ZM368.267 23.7237C370.849 22.3154 373.878 21.57 377.436 21.57V15.57C373.013 15.57 368.972 16.5046 365.394 18.4563L368.267 23.7237ZM431.463 3.97499H434.463V0.974995H431.463V3.97499ZM431.463 78V81H434.463V78H431.463ZM410.883 78H407.883V81H410.883V78ZM410.883 3.97499V0.974995H407.883V3.97499H410.883ZM428.463 3.97499V78H434.463V3.97499H428.463ZM431.463 75H410.883V81H431.463V75ZM413.883 78V3.97499H407.883V78H413.883ZM410.883 6.97499H431.463V0.974995H410.883V6.97499ZM493.898 90.39L491.402 92.0541L492.292 93.39H493.898V90.39ZM485.708 78.105L488.204 76.4409L487.11 74.8008L485.171 75.1534L485.708 78.105ZM459.563 73.905L458.085 76.5155L458.096 76.5223L458.108 76.529L459.563 73.905ZM445.703 60.36L443.106 61.8619L443.116 61.8804L443.128 61.8989L445.703 60.36ZM445.703 21.195L443.119 19.6698L443.114 19.6795L445.703 21.195ZM497.783 7.65L496.315 10.2664L496.322 10.2702L496.328 10.274L497.783 7.65ZM511.538 21.195L508.941 22.6969L508.945 22.7037L508.949 22.7105L511.538 21.195ZM512.903 57.63L515.608 58.927L515.611 58.9198L515.615 58.9127L512.903 57.63ZM502.823 70.44L500.944 68.1011L498.632 69.958L500.462 72.2913L502.823 70.44ZM518.468 90.39V93.39H524.633L520.828 88.5387L518.468 90.39ZM466.178 54.585L463.923 56.5638L463.933 56.5753L463.943 56.5867L466.178 54.585ZM491.063 54.48L488.831 52.4756L488.819 52.4884L488.808 52.5012L491.063 54.48ZM491.063 26.865L488.808 28.8438L488.829 28.8682L488.851 28.8922L491.063 26.865ZM466.178 26.865L468.412 28.8667L468.422 28.8553L468.433 28.8438L466.178 26.865ZM496.394 88.7259L488.204 76.4409L483.212 79.7691L491.402 92.0541L496.394 88.7259ZM485.171 75.1534C483.041 75.5408 480.875 75.735 478.673 75.735V81.735C481.23 81.735 483.755 81.5092 486.244 81.0566L485.171 75.1534ZM478.673 75.735C472.229 75.735 466.362 74.2436 461.017 71.281L458.108 76.529C464.383 80.0064 471.257 81.735 478.673 81.735V75.735ZM461.041 71.2945C455.684 68.261 451.442 64.1156 448.278 58.8211L443.128 61.8989C446.824 68.0844 451.821 72.969 458.085 76.5155L461.041 71.2945ZM448.3 58.8581C445.226 53.5429 443.663 47.5237 443.663 40.725H437.663C437.663 48.4863 439.46 55.5571 443.106 61.8619L448.3 58.8581ZM443.663 40.725C443.663 33.9258 445.226 27.948 448.292 22.7105L443.114 19.6795C439.46 25.922 437.663 32.9642 437.663 40.725H443.663ZM448.286 22.7201C451.449 17.3629 455.682 13.2306 461.017 10.274L458.108 5.02604C451.823 8.50941 446.817 13.4071 443.119 19.6699L448.286 22.7201ZM461.017 10.274C466.362 7.31144 472.229 5.82 478.673 5.82V-0.18C471.257 -0.18 464.383 1.54855 458.108 5.02604L461.017 10.274ZM478.673 5.82C485.193 5.82 491.052 7.31396 496.315 10.2664L499.25 5.03357C493.034 1.54604 486.153 -0.18 478.673 -0.18V5.82ZM496.328 10.274C501.658 13.2275 505.85 17.3524 508.941 22.6969L514.135 19.6931C510.505 13.4176 505.528 8.51247 499.237 5.02604L496.328 10.274ZM508.949 22.7105C512.015 27.948 513.578 33.9258 513.578 40.725H519.578C519.578 32.9642 517.781 25.922 514.127 19.6795L508.949 22.7105ZM513.578 40.725C513.578 46.3998 512.439 51.5933 510.191 56.3473L515.615 58.9127C518.266 53.3067 519.578 47.2301 519.578 40.725H513.578ZM510.198 56.333C507.935 61.0527 504.852 64.9621 500.944 68.1011L504.701 72.7789C509.334 69.0579 512.971 64.4273 515.608 58.927L510.198 56.333ZM500.462 72.2913L516.107 92.2413L520.828 88.5387L505.183 68.5887L500.462 72.2913ZM518.468 87.39H493.898V93.39H518.468V87.39ZM458.663 40.725C458.663 47.0583 460.313 52.45 463.923 56.5638L468.433 52.6062C466.023 49.86 464.663 46.0117 464.663 40.725H458.663ZM463.943 56.5867C467.625 60.6969 472.667 62.625 478.673 62.625V56.625C474.038 56.625 470.75 55.1931 468.412 52.5833L463.943 56.5867ZM478.673 62.625C484.642 62.625 489.649 60.6387 493.318 56.4588L488.808 52.5012C486.456 55.1813 483.203 56.625 478.673 56.625V62.625ZM493.295 56.4844C496.982 52.3779 498.683 47.0162 498.683 40.725H492.683C492.683 45.9138 491.303 49.7221 488.831 52.4756L493.295 56.4844ZM498.683 40.725C498.683 34.319 496.995 28.8969 493.274 24.8378L488.851 28.8922C491.29 31.5531 492.683 35.371 492.683 40.725H498.683ZM493.318 24.8862C489.649 20.7063 484.642 18.72 478.673 18.72V24.72C483.203 24.72 486.456 26.1637 488.808 28.8438L493.318 24.8862ZM478.673 18.72C472.647 18.72 467.599 20.6972 463.923 24.8862L468.433 28.8438C470.776 26.1728 474.058 24.72 478.673 24.72V18.72ZM463.943 24.8633C460.306 28.9234 458.663 34.3359 458.663 40.725H464.663C464.663 35.3541 466.029 31.5266 468.412 28.8667L463.943 24.8633Z" fill="white" mask="url(#path-1-outside-1_24_183)"/>
</svg>
