<svg width="38" height="38" viewBox="0 0 38 38" fill="none" xmlns="http://www.w3.org/2000/svg">
<path d="M32.2436 5.87959C31.8756 6.90589 31.6811 7.9292 31.6661 8.95849C31.6512 9.98778 31.8127 11.0171 32.1538 12.0523L32.2735 12.4084L31.9174 12.2887C30.9031 11.9506 29.8828 11.786 28.8565 11.798C27.8272 11.813 26.7919 12.0045 25.7447 12.3755L25.3707 12.5071L25.5053 12.1331C25.8734 11.1098 26.0678 10.0835 26.0828 9.05423C26.0978 8.02494 25.9362 6.99565 25.5951 5.96038L25.4784 5.60431L25.8345 5.724C26.8488 6.06211 27.8691 6.22668 28.8954 6.21471C29.9217 6.19975 30.96 6.00825 32.0042 5.63723L32.3782 5.50557L32.2436 5.87959ZM37.6414 19.0868C36.657 19.5506 35.7952 20.1401 35.0562 20.8552C34.3171 21.5703 33.7038 22.4141 33.213 23.3865L33.0455 23.7216L32.8779 23.3865C32.4022 22.429 31.7948 21.5942 31.0587 20.8761C30.3197 20.158 29.4519 19.5626 28.4496 19.0868L28.0905 18.9163L28.4496 18.7487C29.434 18.2849 30.2957 17.6955 31.0348 16.9804C31.7738 16.2653 32.3872 15.4215 32.8779 14.446L33.0455 14.1109L33.213 14.446C33.6918 15.4035 34.2962 16.2413 35.0323 16.9564C35.7683 17.6745 36.636 18.27 37.6414 18.7487L38.0004 18.9193L37.6414 19.0898V19.0868ZM31.7828 28.892C31.7978 29.9183 31.9893 30.9566 32.3603 32.0008L32.4919 32.3749L32.1179 32.2402C31.0916 31.8722 30.0683 31.6777 29.039 31.6627C28.0097 31.6478 26.9804 31.8094 25.9452 32.1505L25.5891 32.2701L25.7088 31.9141C26.0469 30.8997 26.2115 29.8794 26.1995 28.8531C26.1845 27.8238 25.993 26.7886 25.622 25.7413L25.4904 25.3673L25.8644 25.502C26.8877 25.87 27.914 26.0645 28.9433 26.0794C29.9726 26.0944 31.0019 25.9328 32.0371 25.5917L32.3932 25.475L32.2735 25.8311C31.9354 26.8454 31.7708 27.8657 31.7828 28.892ZM23.5545 33.2127C22.597 33.6914 21.7592 34.2958 21.0441 35.0319C20.326 35.7679 19.7305 36.6357 19.2548 37.641L19.0842 38.0001L18.9137 37.641C18.4499 36.6566 17.8604 35.7949 17.1453 35.0558C16.4302 34.3168 15.5864 33.7034 14.614 33.2127L14.2789 33.0451L14.614 32.8775C15.5715 32.4018 16.4063 31.7944 17.1244 31.0583C17.8425 30.3223 18.4379 29.4516 18.9137 28.4492L19.0842 28.0901L19.2548 28.4492C19.7186 29.4336 20.305 30.2953 21.0231 31.0344C21.7382 31.7734 22.582 32.3868 23.5575 32.8775L23.8926 33.0451L23.5575 33.2127H23.5545ZM12.4956 25.861C12.1275 26.8843 11.933 27.9106 11.9181 28.9399C11.9031 29.9692 12.0647 30.9985 12.4058 32.0338L12.5225 32.3898L12.1664 32.2701C11.1521 31.932 10.1318 31.7675 9.10548 31.7794C8.07918 31.7944 7.04092 31.9859 5.99666 32.3569L5.62265 32.4886L5.75729 32.1146C6.12533 31.0883 6.31981 30.0649 6.33477 29.0357C6.34973 28.0064 6.18816 26.9771 5.84706 25.9418L5.72737 25.5857L6.08344 25.7054C7.09777 26.0435 8.11808 26.2081 9.14438 26.1961C10.1737 26.1812 11.2089 25.9897 12.2562 25.6186L12.6302 25.487L12.4956 25.861ZM9.54832 19.2544C8.56391 19.7182 7.70218 20.3046 6.96312 21.0227C6.22407 21.7409 5.61068 22.5816 5.11997 23.5571L4.95241 23.8922L4.78485 23.5571C4.30611 22.5996 3.7017 21.7618 2.96564 21.0467C2.22958 20.3286 1.36186 19.7331 0.356507 19.2574L-0.00254822 19.0868L0.356507 18.9163C1.34092 18.4525 2.20265 17.8631 2.9417 17.1479C3.68076 16.4298 4.29414 15.589 4.78485 14.6136L4.95241 14.2785L5.11997 14.6136C5.59572 15.5711 6.20312 16.4059 6.93918 17.124C7.67525 17.8421 8.54595 18.4375 9.54832 18.9133L9.90737 19.0838L9.54832 19.2544ZM11.7984 9.14699C11.8134 10.1763 12.0049 11.2116 12.3759 12.2588L12.5075 12.6328L12.1335 12.4982C11.1102 12.1301 10.0839 11.9357 9.05462 11.9207C8.02532 11.9057 6.99603 12.0673 5.96076 12.4084L5.6047 12.5251L5.72438 12.169C6.06249 11.1547 6.22706 10.1344 6.21509 9.10809C6.20013 8.08179 6.00863 7.04353 5.63761 5.99927L5.50596 5.62526L5.87997 5.7599C6.90627 6.12794 7.92958 6.32242 8.95887 6.33738C9.98816 6.35234 11.0175 6.19077 12.0527 5.84967L12.4088 5.72998L12.2891 6.08605C11.951 7.10038 11.7864 8.12069 11.7984 9.14699ZM23.3839 5.12258C22.4264 5.59833 21.5916 6.20573 20.8735 6.94179C20.1554 7.68085 19.56 8.54856 19.0842 9.55093L18.9137 9.90998L18.7431 9.55093C18.2793 8.56652 17.6929 7.70479 16.9748 6.96573C16.2567 6.22668 15.4159 5.61329 14.4404 5.12258L14.1053 4.95502L14.4404 4.78746C15.3979 4.30872 16.2357 3.70431 16.9508 2.96825C17.6689 2.23219 18.2644 1.36447 18.7401 0.359116L18.9107 6.10352e-05L19.0812 0.359116C19.545 1.34353 20.1345 2.20526 20.8496 2.94431C21.5677 3.68337 22.4085 4.29675 23.3839 4.78746L23.719 4.95502L23.3839 5.12258Z" fill="#082F4F"/>
</svg>
